<svg width="100%" viewBox="0 0 680 460" role="img" xmlns="http://www.w3.org/2000/svg">
<title>Constellation map preview</title>
<desc>Cosmic dark mind map with conversation nodes glowing across topic constellations</desc>
<rect width="680" height="460" fill="#070b18"/>
<g fill="#ffffff">
<circle cx="40" cy="50" r="0.6" opacity="0.5"/><circle cx="120" cy="30" r="0.4" opacity="0.4"/><circle cx="220" cy="70" r="0.5" opacity="0.5"/><circle cx="350" cy="40" r="0.7" opacity="0.6"/><circle cx="430" cy="60" r="0.4" opacity="0.4"/><circle cx="540" cy="35" r="0.5" opacity="0.5"/><circle cx="620" cy="55" r="0.6" opacity="0.5"/><circle cx="650" cy="20" r="0.4" opacity="0.4"/><circle cx="50" cy="200" r="0.5" opacity="0.4"/><circle cx="100" cy="430" r="0.6" opacity="0.5"/><circle cx="290" cy="430" r="0.4" opacity="0.4"/><circle cx="470" cy="440" r="0.6" opacity="0.5"/><circle cx="600" cy="430" r="0.5" opacity="0.4"/><circle cx="330" cy="180" r="0.4" opacity="0.4"/><circle cx="80" cy="290" r="0.5" opacity="0.4"/><circle cx="640" cy="280" r="0.6" opacity="0.5"/>
</g>
<g stroke="#5a7da3" stroke-width="0.5" fill="none">
<line x1="180" y1="140" x2="350" y2="240" opacity="0.25"/><line x1="350" y1="240" x2="500" y2="120" opacity="0.25"/><line x1="350" y1="240" x2="170" y2="340" opacity="0.25"/><line x1="350" y1="240" x2="520" y2="350" opacity="0.25"/><line x1="160" y1="160" x2="180" y2="320" opacity="0.18"/><line x1="510" y1="140" x2="490" y2="320" opacity="0.18"/>
</g>
<g stroke-width="0.5" fill="none" opacity="0.55">
<line x1="100" y1="100" x2="140" y2="135" stroke="#5fd8e8"/><line x1="140" y1="135" x2="180" y2="120" stroke="#5fd8e8"/><line x1="140" y1="135" x2="115" y2="165" stroke="#5fd8e8"/><line x1="140" y1="135" x2="175" y2="170" stroke="#5fd8e8"/><line x1="100" y1="100" x2="180" y2="120" stroke="#5fd8e8"/><line x1="115" y1="165" x2="175" y2="170" stroke="#5fd8e8"/><line x1="80" y1="155" x2="115" y2="165" stroke="#5fd8e8"/><line x1="140" y1="135" x2="80" y2="155" stroke="#5fd8e8"/>
<line x1="475" y1="90" x2="510" y2="120" stroke="#e85cb1"/><line x1="510" y1="120" x2="555" y2="105" stroke="#e85cb1"/><line x1="510" y1="120" x2="490" y2="155" stroke="#e85cb1"/><line x1="510" y1="120" x2="555" y2="160" stroke="#e85cb1"/><line x1="475" y1="90" x2="555" y2="105" stroke="#e85cb1"/><line x1="555" y1="105" x2="600" y2="135" stroke="#e85cb1"/><line x1="555" y1="160" x2="600" y2="135" stroke="#e85cb1"/>
<line x1="495" y1="320" x2="535" y2="345" stroke="#e8b85c"/><line x1="535" y1="345" x2="580" y2="330" stroke="#e8b85c"/><line x1="535" y1="345" x2="510" y2="380" stroke="#e8b85c"/><line x1="535" y1="345" x2="575" y2="385" stroke="#e8b85c"/><line x1="580" y1="330" x2="620" y2="365" stroke="#e8b85c"/><line x1="495" y1="320" x2="510" y2="380" stroke="#e8b85c"/>
<line x1="115" y1="310" x2="160" y2="335" stroke="#9ee85c"/><line x1="160" y1="335" x2="205" y2="320" stroke="#9ee85c"/><line x1="160" y1="335" x2="125" y2="375" stroke="#9ee85c"/><line x1="160" y1="335" x2="195" y2="385" stroke="#9ee85c"/><line x1="115" y1="310" x2="125" y2="375" stroke="#9ee85c"/><line x1="205" y1="320" x2="240" y2="345" stroke="#9ee85c"/>
</g>
<g>
<circle cx="100" cy="100" r="9" fill="#5fd8e8" opacity="0.12"/><circle cx="100" cy="100" r="3" fill="#aef0fa"/><circle cx="180" cy="120" r="9" fill="#5fd8e8" opacity="0.12"/><circle cx="180" cy="120" r="3" fill="#aef0fa"/><circle cx="115" cy="165" r="9" fill="#5fd8e8" opacity="0.12"/><circle cx="115" cy="165" r="3" fill="#aef0fa"/><circle cx="175" cy="170" r="9" fill="#5fd8e8" opacity="0.12"/><circle cx="175" cy="170" r="3" fill="#aef0fa"/><circle cx="80" cy="155" r="9" fill="#5fd8e8" opacity="0.12"/><circle cx="80" cy="155" r="3" fill="#aef0fa"/>
<circle cx="140" cy="135" r="22" fill="#5fd8e8" opacity="0.15"/><circle cx="140" cy="135" r="13" fill="#5fd8e8" opacity="0.25"/><circle cx="140" cy="135" r="6" fill="#aef0fa"/>
<circle cx="475" cy="90" r="9" fill="#e85cb1" opacity="0.12"/><circle cx="475" cy="90" r="3" fill="#f6a9d3"/><circle cx="555" cy="105" r="9" fill="#e85cb1" opacity="0.12"/><circle cx="555" cy="105" r="3" fill="#f6a9d3"/><circle cx="490" cy="155" r="9" fill="#e85cb1" opacity="0.12"/><circle cx="490" cy="155" r="3" fill="#f6a9d3"/><circle cx="555" cy="160" r="9" fill="#e85cb1" opacity="0.12"/><circle cx="555" cy="160" r="3" fill="#f6a9d3"/><circle cx="600" cy="135" r="9" fill="#e85cb1" opacity="0.12"/><circle cx="600" cy="135" r="3" fill="#f6a9d3"/>
<circle cx="510" cy="120" r="22" fill="#e85cb1" opacity="0.15"/><circle cx="510" cy="120" r="13" fill="#e85cb1" opacity="0.25"/><circle cx="510" cy="120" r="6" fill="#f6a9d3"/>
<circle cx="495" cy="320" r="9" fill="#e8b85c" opacity="0.12"/><circle cx="495" cy="320" r="3" fill="#f6dca0"/><circle cx="580" cy="330" r="9" fill="#e8b85c" opacity="0.12"/><circle cx="580" cy="330" r="3" fill="#f6dca0"/><circle cx="510" cy="380" r="9" fill="#e8b85c" opacity="0.12"/><circle cx="510" cy="380" r="3" fill="#f6dca0"/><circle cx="575" cy="385" r="9" fill="#e8b85c" opacity="0.12"/><circle cx="575" cy="385" r="3" fill="#f6dca0"/><circle cx="620" cy="365" r="9" fill="#e8b85c" opacity="0.12"/><circle cx="620" cy="365" r="3" fill="#f6dca0"/>
<circle cx="535" cy="345" r="22" fill="#e8b85c" opacity="0.15"/><circle cx="535" cy="345" r="13" fill="#e8b85c" opacity="0.25"/><circle cx="535" cy="345" r="6" fill="#f6dca0"/>
<circle cx="115" cy="310" r="9" fill="#9ee85c" opacity="0.12"/><circle cx="115" cy="310" r="3" fill="#cef39c"/><circle cx="205" cy="320" r="9" fill="#9ee85c" opacity="0.12"/><circle cx="205" cy="320" r="3" fill="#cef39c"/><circle cx="125" cy="375" r="9" fill="#9ee85c" opacity="0.12"/><circle cx="125" cy="375" r="3" fill="#cef39c"/><circle cx="195" cy="385" r="9" fill="#9ee85c" opacity="0.12"/><circle cx="195" cy="385" r="3" fill="#cef39c"/><circle cx="240" cy="345" r="9" fill="#9ee85c" opacity="0.12"/><circle cx="240" cy="345" r="3" fill="#cef39c"/>
<circle cx="160" cy="335" r="22" fill="#9ee85c" opacity="0.15"/><circle cx="160" cy="335" r="13" fill="#9ee85c" opacity="0.25"/><circle cx="160" cy="335" r="6" fill="#cef39c"/>
<circle cx="350" cy="240" r="20" fill="#a78bff" opacity="0.18"/><circle cx="350" cy="240" r="11" fill="#a78bff" opacity="0.3"/><circle cx="350" cy="240" r="5" fill="#d9c9ff"/>
</g>
<g font-family="ui-sans-serif, system-ui, sans-serif" font-size="11" fill="#cfe2f3">
<text x="140" y="103" text-anchor="middle" opacity="0.85">Engineering</text>
<text x="510" y="88" text-anchor="middle" opacity="0.85">Writing</text>
<text x="535" y="313" text-anchor="middle" opacity="0.85">Personal</text>
<text x="160" y="303" text-anchor="middle" opacity="0.85">Research</text>
<text x="350" y="218" text-anchor="middle" opacity="0.7">Cross-topic hub</text>
</g>
<text x="30" y="30" font-family="ui-sans-serif, sans-serif" font-size="13" fill="#a8c0db" font-weight="500">your conversations · 1,247 nodes · 3 sources</text>
<g font-family="ui-sans-serif, sans-serif" font-size="11" fill="#a8c0db">
<circle cx="40" cy="437" r="3" fill="#5fd8e8"/><text x="50" y="441">Code</text>
<circle cx="100" cy="437" r="3" fill="#e85cb1"/><text x="110" y="441">Cowork</text>
<circle cx="170" cy="437" r="3" fill="#e8b85c"/><text x="180" y="441">Web chat</text>
</g>
</svg>
